HIERARCHY
ROOT RootJoint
{
    OFFSET   0.000000   0.000000   0.000000
    CHANNELS 6 Xposition Yposition Zposition Xrotation Yrotation Zrotation
    JOINT pelvis_lowerback
    {
        OFFSET   0.000000   0.093605   0.000000
        CHANNELS 3 Xrotation Yrotation Zrotation
        JOINT lowerback_torso
        {
            OFFSET   0.000000   0.100000   0.000000
            CHANNELS 3 Xrotation Yrotation Zrotation
            JOINT torso_head
            {
                OFFSET   0.000000   0.282350   0.000000
                CHANNELS 3 Xrotation Yrotation Zrotation
                End Site
                {
                    OFFSET   0.000000   0.192650   0.000000
                }
            }
            JOINT rTorso_Clavicle
            {
                OFFSET  -0.001000   0.157500   0.000000
                CHANNELS 3 Xrotation Yrotation Zrotation
                JOINT rShoulder
                {
                    OFFSET  -0.117647   0.000000   0.000000
                    CHANNELS 3 Xrotation Yrotation Zrotation
                    JOINT rElbow
                    {
                        OFFSET  -0.245000   0.000000   0.000000
                        CHANNELS 3 Xrotation Yrotation Zrotation
                        JOINT rWrist
                        {
                            OFFSET  -0.240000   0.000000   0.000000
                            CHANNELS 3 Xrotation Yrotation Zrotation
                            End Site
                            {
                                OFFSET  -0.116353  -0.002500   0.000000
                            }
                        }
                    }
                }
            }
            JOINT lTorso_Clavicle
            {
                OFFSET   0.001000   0.157500   0.000000
                CHANNELS 3 Xrotation Yrotation Zrotation
                JOINT lShoulder
                {
                    OFFSET   0.117647   0.000000   0.000000
                    CHANNELS 3 Xrotation Yrotation Zrotation
                    JOINT lElbow
                    {
                        OFFSET   0.245000   0.000000   0.000000
                        CHANNELS 3 Xrotation Yrotation Zrotation
                        JOINT lWrist
                        {
                            OFFSET   0.240000   0.000000   0.000000
                            CHANNELS 3 Xrotation Yrotation Zrotation
                            End Site
                            {
                                OFFSET   0.116353  -0.002500   0.000000
                            }
                        }
                    }
                }
            }
        }
    }
    JOINT rHip
    {
        OFFSET  -0.100000  -0.051395   0.000000
        CHANNELS 3 Xrotation Yrotation Zrotation
        JOINT rKnee
        {
            OFFSET   0.000000  -0.410000   0.000000
            CHANNELS 3 Xrotation Yrotation Zrotation
            JOINT rAnkle
            {
                OFFSET   0.000000  -0.390000   0.000000
                CHANNELS 3 Xrotation Yrotation Zrotation
                JOINT rToeJoint
                {
                    OFFSET   0.000000  -0.050000   0.130000
                    CHANNELS 3 Xrotation Yrotation Zrotation
                    End Site
                    {
                        OFFSET  -0.010000   0.002000   0.060000
                    }
                }
            }
        }
    }
    JOINT lHip
    {
        OFFSET   0.100000  -0.051395   0.000000
        CHANNELS 3 Xrotation Yrotation Zrotation
        JOINT lKnee
        {
            OFFSET   0.000000  -0.410000   0.000000
            CHANNELS 3 Xrotation Yrotation Zrotation
            JOINT lAnkle
            {
                OFFSET   0.000000  -0.390000   0.000000
                CHANNELS 3 Xrotation Yrotation Zrotation
                JOINT lToeJoint
                {
                    OFFSET   0.000000  -0.050000   0.130000
                    CHANNELS 3 Xrotation Yrotation Zrotation
                    End Site
                    {
                        OFFSET   0.010000   0.002000   0.060000
                    }
                }
            }
        }
    }
}
MOTION
Frames: 7
Frame Time:   0.008333
 -1.666065   0.896359   3.749878  -4.847928 -18.045281   2.943104   5.888447   3.544012  -0.364824  -4.421741   0.965324   1.979986  -0.814170   2.458233  -0.309410  -3.541986  11.068315  -8.502905  -4.411136  37.090469  23.077036 -179.999997  82.896625 179.999916 -10.353826   9.639638   2.935467  -6.471334  -1.225598  11.097095 -31.291420   8.818437 -13.857871   0.000096 -52.098977   0.000090 -16.491789  -9.389237  12.968495  10.362890   1.554332  -6.106491  17.578184   0.000602   0.000165 -22.999407  -0.168588  -0.412366  -0.343795  -0.000328  -0.000135 -15.379133   0.322566   4.675139  19.265409   0.001229   0.000277  -4.030340   5.870945  -4.016571   0.897962   0.000027   0.000049
 -1.666692   0.896814   3.748298  -4.937261 -18.112647   2.920017   5.943605   3.524746  -0.312014  -4.474695   1.002280   1.989842  -0.792855   2.391408  -0.295168  -3.584675  11.122536  -8.541869  -4.353742  37.180484  23.010271 -179.999959  82.853977 179.999849 -10.346611   9.645947   2.896061  -6.474446  -1.180072  11.061716 -31.256036   8.852326 -13.838171   0.000094 -52.082121   0.000088 -16.494212  -9.398709  13.040849  10.369489   1.562166  -6.059304  17.516757   0.000523   0.000155 -22.847415  -0.098952  -0.407152  -0.370491  -0.000248  -0.000109 -15.116194   0.279966   4.773728  19.079393   0.001179   0.000361  -4.002222   5.799753  -4.120624   0.861662   0.000026   0.000091
 -1.667282   0.897222   3.746830  -5.020290 -18.182065   2.893743   5.990334   3.505638  -0.258387  -4.525645   1.038023   2.001633  -0.773322   2.328287  -0.280160  -3.622379  11.176194  -8.574428  -4.300824  37.269564  22.951842 -179.999913  82.809547 179.999781 -10.340241   9.651645   2.860939  -6.476919  -1.136832  11.025284 -31.222356   8.885998 -13.820957   0.000092 -52.065198   0.000086 -16.497443  -9.402642  13.113304  10.372790   1.571573  -6.011872  17.464054   0.000452   0.000144 -22.707945  -0.030442  -0.399843  -0.394243  -0.000187  -0.000087 -14.857674   0.238371   4.868773  18.907977   0.001111   0.000422  -3.975684   5.732659  -4.217790   0.831141   0.000024   0.000116
 -1.667833   0.897590   3.745470  -5.096088 -18.247055   2.865924   6.030371   3.486213  -0.205518  -4.575504   1.070398   2.014562  -0.755796   2.269214  -0.265596  -3.656234  11.226706  -8.603001  -4.251012  37.353922  22.898689 -179.999873  82.767058 179.999730 -10.334538   9.656862   2.829194  -6.478960  -1.096913  10.989219 -31.190498   8.917834 -13.806325   0.000088 -52.049248   0.000083 -16.501078  -9.404491  13.182122  10.373884   1.580603  -5.963963  17.416515   0.000390   0.000132 -22.579330   0.034123  -0.392189  -0.415331  -0.000139  -0.000070 -14.608927   0.200144   4.957709  18.750950   0.001028   0.000454  -3.950829   5.669937  -4.308426   0.803855   0.000022   0.000128
 -1.668343   0.897921   3.744211  -5.164564 -18.306652   2.837271   6.065166   3.466736  -0.154176  -4.624013   1.099308   2.027912  -0.740032   2.214047  -0.251711  -3.687101  11.273480  -8.628791  -4.204021  37.432757  22.849546 -179.999846  82.727136 179.999698 -10.329274   9.661793   2.799588  -6.480706  -1.060218  10.954374 -31.160546   8.947545 -13.793622   0.000082 -52.034399   0.000079 -16.504738  -9.405902  13.247027  10.373068   1.588737  -5.915981  17.372743   0.000336   0.000121 -22.460460   0.094192  -0.384407  -0.434117  -0.000103  -0.000056 -14.371476   0.165463   5.039812  18.606605   0.000936   0.000462  -3.927584   5.611347  -4.392985   0.779253   0.000019   0.000132
 -1.668813   0.898219   3.743049  -5.225859 -18.361160   2.808031   6.095856   3.447483  -0.104780  -4.670806   1.125124   2.041290  -0.725738   2.162559  -0.238577  -3.715518  11.316589  -8.652434  -4.159750  37.506120  22.803784 -179.999832  82.689807 179.999684 -10.324312   9.666545   2.771412  -6.482262  -1.026424  10.921199 -31.132496   8.975169 -13.782342   0.000076 -52.020618   0.000074 -16.508272  -9.407434  13.308478  10.370538   1.596019  -5.868229  17.331885   0.000290   0.000109 -22.350496   0.149975  -0.376619  -0.450879  -0.000075  -0.000045 -14.145909   0.134082   5.115112  18.473548   0.000841   0.000455  -3.905866   5.556626  -4.471883   0.756981   0.000015   0.000131
 -1.669243   0.898487   3.741982  -5.280205 -18.411145   2.778260   6.123337   3.428682  -0.057573  -4.715573   1.148277   2.054470  -0.712677   2.114513  -0.226205  -3.741819  11.356303  -8.674289  -4.118105  37.574311  22.761038 -179.999830  82.654963 179.999687 -10.319582   9.671161   2.744336  -6.483696  -0.995225  10.889894 -31.106295   9.000820 -13.772151   0.000069 -52.007834   0.000069 -16.511632  -9.409244  13.366934  10.366509   1.602615  -5.820909  17.293333   0.000250   0.000099 -22.248783   0.201851  -0.368880  -0.465841  -0.000054  -0.000036 -13.932428   0.105686   5.183897  18.350644   0.000747   0.000437  -3.885587   5.505519  -4.545503   0.736771   0.000012   0.000126
